<svg width="29" height="28" viewBox="0 0 29 28" fill="none" xmlns="http://www.w3.org/2000/svg">
<path d="M22.332 0C25.6457 2.57702e-07 28.332 2.68629 28.332 6V22C28.332 25.3137 25.6457 28 22.332 28H6.33203C3.01832 28 0.332031 25.3137 0.332031 22V6C0.332032 2.68629 3.01832 3.22128e-08 6.33203 0H22.332ZM17.2646 4.72559C15.3633 4.66336 13.4223 4.6441 11.5156 4.69922C9.3828 4.76074 7.46187 4.95163 6.10352 6.79004C5.13436 8.10131 5.10393 9.51109 5.05273 11.0723C4.98908 13.0184 4.98908 14.992 5.05273 16.9375C5.11211 18.7458 5.1864 20.352 6.52637 21.7217C7.92244 23.149 9.48848 23.2256 11.4336 23.2871C13.3787 23.3486 15.354 23.3506 17.2998 23.2852C19.0966 23.2247 20.6887 23.1412 22.0488 21.8105C23.4752 20.4149 23.5535 18.7836 23.6133 16.9033C23.6744 14.9694 23.6746 13.0078 23.6113 11.0732C23.5566 9.39732 23.5147 7.92282 22.3867 6.57227C20.9975 4.9096 19.293 4.79208 17.2646 4.72559ZM12.0137 6.37012C13.6071 6.33278 15.2143 6.35443 16.8027 6.39746C18.2954 6.43761 19.8966 6.3257 21.001 7.5332C22.0061 8.63297 21.9031 10.1496 21.9404 11.5352C21.9849 13.1823 21.9845 14.8285 21.9404 16.4756C21.8978 18.0656 22.0142 19.7554 20.6074 20.8311C19.497 21.6798 18.1244 21.5778 16.8027 21.6133C15.1556 21.6574 13.5094 21.6577 11.8623 21.6133C10.2733 21.5706 8.58143 21.686 7.50684 20.2803C6.65809 19.1698 6.75917 17.7965 6.72363 16.4756C6.67954 14.8292 6.67918 13.1819 6.72363 11.5352C6.76095 10.1496 6.65845 8.63298 7.66406 7.5332C8.48651 6.63395 9.67977 6.4493 10.8564 6.39844L12.0137 6.37012ZM14.2539 9.21484C10.5457 9.27992 8.29632 13.3918 10.2773 16.5488C12.1563 19.5426 16.5406 19.5306 18.4004 16.5273C20.3282 13.4142 18.165 9.408 14.6025 9.2207L14.2539 9.21484ZM13.9336 10.9219C16.5145 10.6594 18.3322 13.3375 17.0059 15.5938C15.8153 17.6188 12.821 17.6036 11.6465 15.5703C10.5895 13.7401 11.6746 11.3023 13.7314 10.9492L13.9336 10.9219ZM19.75 10.0527C20.9089 9.57777 20.4883 7.72958 19.0889 7.93359C17.5669 8.15549 18.1491 10.7085 19.75 10.0527Z" fill="url(#paint0_linear_97582_22570)"/>
<path d="M22.332 0C25.6457 2.57702e-07 28.332 2.68629 28.332 6V22C28.332 25.3137 25.6457 28 22.332 28H6.33203C3.01832 28 0.332031 25.3137 0.332031 22V6C0.332032 2.68629 3.01832 3.22128e-08 6.33203 0H22.332ZM17.2646 4.72559C15.3633 4.66336 13.4223 4.6441 11.5156 4.69922C9.3828 4.76074 7.46187 4.95163 6.10352 6.79004C5.13436 8.10131 5.10393 9.51109 5.05273 11.0723C4.98908 13.0184 4.98908 14.992 5.05273 16.9375C5.11211 18.7458 5.1864 20.352 6.52637 21.7217C7.92244 23.149 9.48848 23.2256 11.4336 23.2871C13.3787 23.3486 15.354 23.3506 17.2998 23.2852C19.0966 23.2247 20.6887 23.1412 22.0488 21.8105C23.4752 20.4149 23.5535 18.7836 23.6133 16.9033C23.6744 14.9694 23.6746 13.0078 23.6113 11.0732C23.5566 9.39732 23.5147 7.92282 22.3867 6.57227C20.9975 4.9096 19.293 4.79208 17.2646 4.72559ZM12.0137 6.37012C13.6071 6.33278 15.2143 6.35443 16.8027 6.39746C18.2954 6.43761 19.8966 6.3257 21.001 7.5332C22.0061 8.63297 21.9031 10.1496 21.9404 11.5352C21.9849 13.1823 21.9845 14.8285 21.9404 16.4756C21.8978 18.0656 22.0142 19.7554 20.6074 20.8311C19.497 21.6798 18.1244 21.5778 16.8027 21.6133C15.1556 21.6574 13.5094 21.6577 11.8623 21.6133C10.2733 21.5706 8.58143 21.686 7.50684 20.2803C6.65809 19.1698 6.75917 17.7965 6.72363 16.4756C6.67954 14.8292 6.67918 13.1819 6.72363 11.5352C6.76095 10.1496 6.65845 8.63298 7.66406 7.5332C8.48651 6.63395 9.67977 6.4493 10.8564 6.39844L12.0137 6.37012ZM14.2539 9.21484C10.5457 9.27992 8.29632 13.3918 10.2773 16.5488C12.1563 19.5426 16.5406 19.5306 18.4004 16.5273C20.3282 13.4142 18.165 9.408 14.6025 9.2207L14.2539 9.21484ZM13.9336 10.9219C16.5145 10.6594 18.3322 13.3375 17.0059 15.5938C15.8153 17.6188 12.821 17.6036 11.6465 15.5703C10.5895 13.7401 11.6746 11.3023 13.7314 10.9492L13.9336 10.9219ZM19.75 10.0527C20.9089 9.57777 20.4883 7.72958 19.0889 7.93359C17.5669 8.15549 18.1491 10.7085 19.75 10.0527Z" fill="url(#paint1_radial_97582_22570)"/>
<path d="M22.332 0C25.6457 2.57702e-07 28.332 2.68629 28.332 6V22C28.332 25.3137 25.6457 28 22.332 28H6.33203C3.01832 28 0.332031 25.3137 0.332031 22V6C0.332032 2.68629 3.01832 3.22128e-08 6.33203 0H22.332ZM17.2646 4.72559C15.3633 4.66336 13.4223 4.6441 11.5156 4.69922C9.3828 4.76074 7.46187 4.95163 6.10352 6.79004C5.13436 8.10131 5.10393 9.51109 5.05273 11.0723C4.98908 13.0184 4.98908 14.992 5.05273 16.9375C5.11211 18.7458 5.1864 20.352 6.52637 21.7217C7.92244 23.149 9.48848 23.2256 11.4336 23.2871C13.3787 23.3486 15.354 23.3506 17.2998 23.2852C19.0966 23.2247 20.6887 23.1412 22.0488 21.8105C23.4752 20.4149 23.5535 18.7836 23.6133 16.9033C23.6744 14.9694 23.6746 13.0078 23.6113 11.0732C23.5566 9.39732 23.5147 7.92282 22.3867 6.57227C20.9975 4.9096 19.293 4.79208 17.2646 4.72559ZM12.0137 6.37012C13.6071 6.33278 15.2143 6.35443 16.8027 6.39746C18.2954 6.43761 19.8966 6.3257 21.001 7.5332C22.0061 8.63297 21.9031 10.1496 21.9404 11.5352C21.9849 13.1823 21.9845 14.8285 21.9404 16.4756C21.8978 18.0656 22.0142 19.7554 20.6074 20.8311C19.497 21.6798 18.1244 21.5778 16.8027 21.6133C15.1556 21.6574 13.5094 21.6577 11.8623 21.6133C10.2733 21.5706 8.58143 21.686 7.50684 20.2803C6.65809 19.1698 6.75917 17.7965 6.72363 16.4756C6.67954 14.8292 6.67918 13.1819 6.72363 11.5352C6.76095 10.1496 6.65845 8.63298 7.66406 7.5332C8.48651 6.63395 9.67977 6.4493 10.8564 6.39844L12.0137 6.37012ZM14.2539 9.21484C10.5457 9.27992 8.29632 13.3918 10.2773 16.5488C12.1563 19.5426 16.5406 19.5306 18.4004 16.5273C20.3282 13.4142 18.165 9.408 14.6025 9.2207L14.2539 9.21484ZM13.9336 10.9219C16.5145 10.6594 18.3322 13.3375 17.0059 15.5938C15.8153 17.6188 12.821 17.6036 11.6465 15.5703C10.5895 13.7401 11.6746 11.3023 13.7314 10.9492L13.9336 10.9219ZM19.75 10.0527C20.9089 9.57777 20.4883 7.72958 19.0889 7.93359C17.5669 8.15549 18.1491 10.7085 19.75 10.0527Z" fill="url(#paint2_radial_97582_22570)"/>
<path d="M22.332 0C25.6457 2.57702e-07 28.332 2.68629 28.332 6V22C28.332 25.3137 25.6457 28 22.332 28H6.33203C3.01832 28 0.332031 25.3137 0.332031 22V6C0.332032 2.68629 3.01832 3.22128e-08 6.33203 0H22.332ZM17.2646 4.72559C15.3633 4.66336 13.4223 4.6441 11.5156 4.69922C9.3828 4.76074 7.46187 4.95163 6.10352 6.79004C5.13436 8.10131 5.10393 9.51109 5.05273 11.0723C4.98908 13.0184 4.98908 14.992 5.05273 16.9375C5.11211 18.7458 5.1864 20.352 6.52637 21.7217C7.92244 23.149 9.48848 23.2256 11.4336 23.2871C13.3787 23.3486 15.354 23.3506 17.2998 23.2852C19.0966 23.2247 20.6887 23.1412 22.0488 21.8105C23.4752 20.4149 23.5535 18.7836 23.6133 16.9033C23.6744 14.9694 23.6746 13.0078 23.6113 11.0732C23.5566 9.39732 23.5147 7.92282 22.3867 6.57227C20.9975 4.9096 19.293 4.79208 17.2646 4.72559ZM12.0137 6.37012C13.6071 6.33278 15.2143 6.35443 16.8027 6.39746C18.2954 6.43761 19.8966 6.3257 21.001 7.5332C22.0061 8.63297 21.9031 10.1496 21.9404 11.5352C21.9849 13.1823 21.9845 14.8285 21.9404 16.4756C21.8978 18.0656 22.0142 19.7554 20.6074 20.8311C19.497 21.6798 18.1244 21.5778 16.8027 21.6133C15.1556 21.6574 13.5094 21.6577 11.8623 21.6133C10.2733 21.5706 8.58143 21.686 7.50684 20.2803C6.65809 19.1698 6.75917 17.7965 6.72363 16.4756C6.67954 14.8292 6.67918 13.1819 6.72363 11.5352C6.76095 10.1496 6.65845 8.63298 7.66406 7.5332C8.48651 6.63395 9.67977 6.4493 10.8564 6.39844L12.0137 6.37012ZM14.2539 9.21484C10.5457 9.27992 8.29632 13.3918 10.2773 16.5488C12.1563 19.5426 16.5406 19.5306 18.4004 16.5273C20.3282 13.4142 18.165 9.408 14.6025 9.2207L14.2539 9.21484ZM13.9336 10.9219C16.5145 10.6594 18.3322 13.3375 17.0059 15.5938C15.8153 17.6188 12.821 17.6036 11.6465 15.5703C10.5895 13.7401 11.6746 11.3023 13.7314 10.9492L13.9336 10.9219ZM19.75 10.0527C20.9089 9.57777 20.4883 7.72958 19.0889 7.93359C17.5669 8.15549 18.1491 10.7085 19.75 10.0527Z" fill="url(#paint3_radial_97582_22570)" fill-opacity="0.7"/>
<path d="M22.332 0C25.6457 2.57702e-07 28.332 2.68629 28.332 6V22C28.332 25.3137 25.6457 28 22.332 28H6.33203C3.01832 28 0.332031 25.3137 0.332031 22V6C0.332032 2.68629 3.01832 3.22128e-08 6.33203 0H22.332ZM17.2646 4.72559C15.3633 4.66336 13.4223 4.6441 11.5156 4.69922C9.3828 4.76074 7.46187 4.95163 6.10352 6.79004C5.13436 8.10131 5.10393 9.51109 5.05273 11.0723C4.98908 13.0184 4.98908 14.992 5.05273 16.9375C5.11211 18.7458 5.1864 20.352 6.52637 21.7217C7.92244 23.149 9.48848 23.2256 11.4336 23.2871C13.3787 23.3486 15.354 23.3506 17.2998 23.2852C19.0966 23.2247 20.6887 23.1412 22.0488 21.8105C23.4752 20.4149 23.5535 18.7836 23.6133 16.9033C23.6744 14.9694 23.6746 13.0078 23.6113 11.0732C23.5566 9.39732 23.5147 7.92282 22.3867 6.57227C20.9975 4.9096 19.293 4.79208 17.2646 4.72559ZM12.0137 6.37012C13.6071 6.33278 15.2143 6.35443 16.8027 6.39746C18.2954 6.43761 19.8966 6.3257 21.001 7.5332C22.0061 8.63297 21.9031 10.1496 21.9404 11.5352C21.9849 13.1823 21.9845 14.8285 21.9404 16.4756C21.8978 18.0656 22.0142 19.7554 20.6074 20.8311C19.497 21.6798 18.1244 21.5778 16.8027 21.6133C15.1556 21.6574 13.5094 21.6577 11.8623 21.6133C10.2733 21.5706 8.58143 21.686 7.50684 20.2803C6.65809 19.1698 6.75917 17.7965 6.72363 16.4756C6.67954 14.8292 6.67918 13.1819 6.72363 11.5352C6.76095 10.1496 6.65845 8.63298 7.66406 7.5332C8.48651 6.63395 9.67977 6.4493 10.8564 6.39844L12.0137 6.37012ZM14.2539 9.21484C10.5457 9.27992 8.29632 13.3918 10.2773 16.5488C12.1563 19.5426 16.5406 19.5306 18.4004 16.5273C20.3282 13.4142 18.165 9.408 14.6025 9.2207L14.2539 9.21484ZM13.9336 10.9219C16.5145 10.6594 18.3322 13.3375 17.0059 15.5938C15.8153 17.6188 12.821 17.6036 11.6465 15.5703C10.5895 13.7401 11.6746 11.3023 13.7314 10.9492L13.9336 10.9219ZM19.75 10.0527C20.9089 9.57777 20.4883 7.72958 19.0889 7.93359C17.5669 8.15549 18.1491 10.7085 19.75 10.0527Z" fill="url(#paint4_radial_97582_22570)"/>
<path d="M22.332 0C25.6457 2.57702e-07 28.332 2.68629 28.332 6V22C28.332 25.3137 25.6457 28 22.332 28H6.33203C3.01832 28 0.332031 25.3137 0.332031 22V6C0.332032 2.68629 3.01832 3.22128e-08 6.33203 0H22.332ZM17.2646 4.72559C15.3633 4.66336 13.4223 4.6441 11.5156 4.69922C9.3828 4.76074 7.46187 4.95163 6.10352 6.79004C5.13436 8.10131 5.10393 9.51109 5.05273 11.0723C4.98908 13.0184 4.98908 14.992 5.05273 16.9375C5.11211 18.7458 5.1864 20.352 6.52637 21.7217C7.92244 23.149 9.48848 23.2256 11.4336 23.2871C13.3787 23.3486 15.354 23.3506 17.2998 23.2852C19.0966 23.2247 20.6887 23.1412 22.0488 21.8105C23.4752 20.4149 23.5535 18.7836 23.6133 16.9033C23.6744 14.9694 23.6746 13.0078 23.6113 11.0732C23.5566 9.39732 23.5147 7.92282 22.3867 6.57227C20.9975 4.9096 19.293 4.79208 17.2646 4.72559ZM12.0137 6.37012C13.6071 6.33278 15.2143 6.35443 16.8027 6.39746C18.2954 6.43761 19.8966 6.3257 21.001 7.5332C22.0061 8.63297 21.9031 10.1496 21.9404 11.5352C21.9849 13.1823 21.9845 14.8285 21.9404 16.4756C21.8978 18.0656 22.0142 19.7554 20.6074 20.8311C19.497 21.6798 18.1244 21.5778 16.8027 21.6133C15.1556 21.6574 13.5094 21.6577 11.8623 21.6133C10.2733 21.5706 8.58143 21.686 7.50684 20.2803C6.65809 19.1698 6.75917 17.7965 6.72363 16.4756C6.67954 14.8292 6.67918 13.1819 6.72363 11.5352C6.76095 10.1496 6.65845 8.63298 7.66406 7.5332C8.48651 6.63395 9.67977 6.4493 10.8564 6.39844L12.0137 6.37012ZM14.2539 9.21484C10.5457 9.27992 8.29632 13.3918 10.2773 16.5488C12.1563 19.5426 16.5406 19.5306 18.4004 16.5273C20.3282 13.4142 18.165 9.408 14.6025 9.2207L14.2539 9.21484ZM13.9336 10.9219C16.5145 10.6594 18.3322 13.3375 17.0059 15.5938C15.8153 17.6188 12.821 17.6036 11.6465 15.5703C10.5895 13.7401 11.6746 11.3023 13.7314 10.9492L13.9336 10.9219ZM19.75 10.0527C20.9089 9.57777 20.4883 7.72958 19.0889 7.93359C17.5669 8.15549 18.1491 10.7085 19.75 10.0527Z" fill="url(#paint5_radial_97582_22570)"/>
<g clip-path="url(#clip0_97582_22570)">
<path d="M11.515 4.69903C13.4217 4.64391 15.3622 4.66347 17.2635 4.7257C19.2922 4.79219 20.9969 4.90954 22.3862 6.57266C23.5142 7.92322 23.5562 9.39716 23.6109 11.0731C23.6742 13.0079 23.6739 14.9697 23.6127 16.9038C23.553 18.7842 23.4747 20.4153 22.0481 21.811C20.6879 23.1417 19.0959 23.2245 17.2991 23.285C15.3533 23.3504 13.3779 23.3483 11.4328 23.2868C9.48771 23.2252 7.92166 23.1495 6.52559 21.7221C5.18535 20.3524 5.11103 18.7458 5.05165 16.9372C4.98799 14.9918 4.98799 13.0189 5.05165 11.0727C5.10285 9.51131 5.13308 8.10102 6.10243 6.78958C7.46081 4.95115 9.38209 4.76055 11.515 4.69903ZM12.0128 6.37033C10.5157 6.40553 8.76016 6.3337 7.6635 7.53277C6.65752 8.63263 6.76064 10.1496 6.7233 11.5354C6.67885 13.1821 6.67921 14.8289 6.7233 16.4753C6.75886 17.7963 6.65681 19.1697 7.50561 20.2802C8.58023 21.6862 10.2725 21.571 11.8617 21.6137C13.5088 21.6581 15.1545 21.6578 16.8016 21.6137C18.1234 21.5781 19.496 21.6802 20.6065 20.8314C22.0136 19.7557 21.8973 18.0655 21.94 16.4753C21.9841 14.8282 21.9844 13.1825 21.94 11.5354C21.9026 10.1496 22.0054 8.63263 20.9998 7.53277C19.8953 6.32517 18.2944 6.43718 16.8016 6.397C15.2132 6.35397 13.6066 6.33299 12.0132 6.37033H12.0128Z" fill="white"/>
<path d="M14.2519 9.21474C18.0195 9.14896 20.3885 13.3133 18.3985 16.5269C16.5388 19.5306 12.1543 19.5427 10.2753 16.5486C8.29427 13.3916 10.5434 9.27982 14.2516 9.21474H14.2519ZM13.9319 10.922C11.745 11.1446 10.5537 13.681 11.6451 15.5703C12.8196 17.6036 15.813 17.6185 17.0035 15.5934C18.3299 13.3372 16.5128 10.6592 13.9319 10.9216V10.922Z" fill="white"/>
<path d="M19.089 7.93389C20.489 7.72942 20.9097 9.57816 19.7501 10.0529C18.1492 10.7086 17.5671 8.15578 19.089 7.93389Z" fill="white"/>
</g>
<defs>
<linearGradient id="paint0_linear_97582_22570" x1="14.361" y1="7.53623" x2="14.332" y2="28" gradientUnits="userSpaceOnUse">
<stop stop-color="#FE02B7"/>
<stop offset="0.256159" stop-color="#FC2278"/>
<stop offset="0.465895" stop-color="#FF2160"/>
<stop offset="1" stop-color="#FF5234"/>
</linearGradient>
<radialGradient id="paint1_radial_97582_22570" cx="0" cy="0" r="1" gradientUnits="userSpaceOnUse" gradientTransform="translate(4.62189 0.869565) rotate(64.7828) scale(11.0214 27.621)">
<stop stop-color="#7837F9"/>
<stop offset="0.277606" stop-color="#7837F9" stop-opacity="0.9"/>
<stop offset="1" stop-color="#7837F9" stop-opacity="0"/>
</radialGradient>
<radialGradient id="paint2_radial_97582_22570" cx="0" cy="0" r="1" gradientUnits="userSpaceOnUse" gradientTransform="translate(7.11464 27.4203) rotate(79.1145) scale(12.2789 19.521)">
<stop stop-color="#FFD702"/>
<stop offset="1" stop-color="#FFD702" stop-opacity="0"/>
</radialGradient>
<radialGradient id="paint3_radial_97582_22570" cx="0" cy="0" r="1" gradientUnits="userSpaceOnUse" gradientTransform="translate(28.9117 25.1884) rotate(-159.55) scale(5.4755 7.91772)">
<stop stop-color="#D300C5"/>
<stop offset="1" stop-color="#D300C5" stop-opacity="0"/>
</radialGradient>
<radialGradient id="paint4_radial_97582_22570" cx="0" cy="0" r="1" gradientUnits="userSpaceOnUse" gradientTransform="translate(26.7088 2.02898) rotate(165.426) scale(17.9695 10.0245)">
<stop stop-color="#D300C5"/>
<stop offset="1" stop-color="#D300C5" stop-opacity="0"/>
</radialGradient>
<radialGradient id="paint5_radial_97582_22570" cx="0" cy="0" r="1" gradientUnits="userSpaceOnUse" gradientTransform="translate(0.332031 11.5362) rotate(-17.1428) scale(12.1939 6.34933)">
<stop stop-color="#D300C5"/>
<stop offset="1" stop-color="#D300C5" stop-opacity="0"/>
</radialGradient>
<clipPath id="clip0_97582_22570">
<rect width="18.6546" height="18.6667" fill="white" transform="translate(5.00391 4.66667)"/>
</clipPath>
</defs>
</svg>
