<svg width="274" height="106" viewBox="0 0 274 106" fill="none" xmlns="http://www.w3.org/2000/svg">
<path d="M30.0646 64.44C30.0646 66.488 29.5846 68.36 28.6246 70.056C27.6966 71.72 26.2726 73.064 24.3526 74.088C22.4646 75.08 20.1446 75.576 17.3926 75.576H12.7366V87H3.32863V53.16H17.3926C20.1126 53.16 22.4166 53.64 24.3046 54.6C26.2246 55.56 27.6646 56.888 28.6246 58.584C29.5846 60.28 30.0646 62.232 30.0646 64.44ZM16.4806 68.088C19.1366 68.088 20.4646 66.872 20.4646 64.44C20.4646 61.976 19.1366 60.744 16.4806 60.744H12.7366V68.088H16.4806ZM38.5963 57.576C36.9323 57.576 35.5883 57.128 34.5643 56.232C33.5723 55.304 33.0763 54.152 33.0763 52.776C33.0763 51.368 33.5723 50.2 34.5643 49.272C35.5883 48.344 36.9323 47.88 38.5963 47.88C40.2283 47.88 41.5403 48.344 42.5323 49.272C43.5563 50.2 44.0683 51.368 44.0683 52.776C44.0683 54.152 43.5563 55.304 42.5323 56.232C41.5403 57.128 40.2283 57.576 38.5963 57.576ZM43.2523 60.072V87H33.8443V60.072H43.2523ZM57.5379 79.176H69.0099V87H47.1699V79.56L57.8739 67.896H47.2659V60.072H68.6259V67.512L57.5379 79.176ZM81.866 79.176H93.338V87H71.498V79.56L82.202 67.896H71.594V60.072H92.954V67.512L81.866 79.176ZM95.7301 73.512C95.7301 70.728 96.2261 68.296 97.2181 66.216C98.2421 64.136 99.6181 62.536 101.346 61.416C103.106 60.296 105.058 59.736 107.202 59.736C109.058 59.736 110.658 60.104 112.002 60.84C113.346 61.576 114.386 62.568 115.122 63.816V60.072H124.53V87H115.122V83.256C114.386 84.504 113.33 85.496 111.954 86.232C110.61 86.968 109.026 87.336 107.202 87.336C105.058 87.336 103.106 86.776 101.346 85.656C99.6181 84.536 98.2421 82.936 97.2181 80.856C96.2261 78.744 95.7301 76.296 95.7301 73.512ZM115.122 73.512C115.122 71.784 114.642 70.424 113.682 69.432C112.754 68.44 111.602 67.944 110.226 67.944C108.818 67.944 107.65 68.44 106.722 69.432C105.794 70.392 105.33 71.752 105.33 73.512C105.33 75.24 105.794 76.616 106.722 77.64C107.65 78.632 108.818 79.128 110.226 79.128C111.602 79.128 112.754 78.632 113.682 77.64C114.642 76.648 115.122 75.272 115.122 73.512ZM142.803 78.12L147.843 60.072H157.875L148.611 87H136.899L127.635 60.072H137.667L142.803 78.12ZM159.527 73.512C159.527 70.728 160.023 68.296 161.015 66.216C162.039 64.136 163.415 62.536 165.143 61.416C166.903 60.296 168.855 59.736 170.999 59.736C172.855 59.736 174.455 60.104 175.799 60.84C177.143 61.576 178.183 62.568 178.919 63.816V60.072H188.327V87H178.919V83.256C178.183 84.504 177.127 85.496 175.751 86.232C174.407 86.968 172.823 87.336 170.999 87.336C168.855 87.336 166.903 86.776 165.143 85.656C163.415 84.536 162.039 82.936 161.015 80.856C160.023 78.744 159.527 76.296 159.527 73.512ZM178.919 73.512C178.919 71.784 178.439 70.424 177.479 69.432C176.551 68.44 175.399 67.944 174.023 67.944C172.615 67.944 171.447 68.44 170.519 69.432C169.591 70.392 169.127 71.752 169.127 73.512C169.127 75.24 169.591 76.616 170.519 77.64C171.447 78.632 172.615 79.128 174.023 79.128C175.399 79.128 176.551 78.632 177.479 77.64C178.439 76.648 178.919 75.272 178.919 73.512Z" fill="#FF1010"/>
<ellipse cx="233.5" cy="65.5266" rx="40.5" ry="37.4734" fill="#FAC42E"/>
<path d="M213.25 47.0625H224.406L238.562 88.9688L235.281 99H229.656L213.25 47.0625ZM234.625 66.375L241.094 47.0625H252.25L241 81.2812H239.781L234.625 66.375Z" fill="black"/>
</svg>
